<mxfile host="app.diagrams.net" modified="2022-02-08T01:13:38.599Z" agent="5.0 (Windows NT 10.0; Win64; x64) AppleWebKit/537.36 (KHTML, like Gecko) Chrome/98.0.4758.80 Safari/537.36 Edg/98.0.1108.43" etag="Oy5A4Dr1BE3az7sVJbrE" version="16.5.3" type="github">
  <diagram id="lopL0MONfdwnP9RmBGuu" name="Page-1">
    <mxGraphModel dx="868" dy="482" grid="1" gridSize="10" guides="1" tooltips="1" connect="1" arrows="1" fold="1" page="1" pageScale="1" pageWidth="827" pageHeight="1169" math="0" shadow="0">
      <root>
        <mxCell id="0" />
        <mxCell id="1" parent="0" />
        <mxCell id="faX5LNcDD97SDwnpsko3-13" value="Clientes" style="swimlane;" vertex="1" parent="1">
          <mxGeometry x="59" y="570" width="195" height="160" as="geometry" />
        </mxCell>
        <mxCell id="faX5LNcDD97SDwnpsko3-66" value="Tipo (Personal - Empresarial)" style="text;html=1;align=center;verticalAlign=middle;resizable=0;points=[];autosize=1;strokeColor=none;fillColor=none;" vertex="1" parent="faX5LNcDD97SDwnpsko3-13">
          <mxGeometry x="10" y="75" width="170" height="20" as="geometry" />
        </mxCell>
        <mxCell id="faX5LNcDD97SDwnpsko3-67" value="Nombre/RazSoc" style="text;html=1;align=center;verticalAlign=middle;resizable=0;points=[];autosize=1;strokeColor=none;fillColor=none;" vertex="1" parent="faX5LNcDD97SDwnpsko3-13">
          <mxGeometry x="51" y="30" width="100" height="20" as="geometry" />
        </mxCell>
        <mxCell id="faX5LNcDD97SDwnpsko3-68" value="DNI/RUC" style="text;html=1;align=center;verticalAlign=middle;resizable=0;points=[];autosize=1;strokeColor=none;fillColor=none;" vertex="1" parent="faX5LNcDD97SDwnpsko3-13">
          <mxGeometry x="60" y="50" width="70" height="20" as="geometry" />
        </mxCell>
        <mxCell id="faX5LNcDD97SDwnpsko3-70" value="Teléfono" style="text;html=1;align=center;verticalAlign=middle;resizable=0;points=[];autosize=1;strokeColor=none;fillColor=none;" vertex="1" parent="faX5LNcDD97SDwnpsko3-13">
          <mxGeometry x="65" y="100" width="60" height="20" as="geometry" />
        </mxCell>
        <mxCell id="faX5LNcDD97SDwnpsko3-38" value="Asignación cliente - producto" style="swimlane;startSize=30;" vertex="1" parent="1">
          <mxGeometry x="320" y="370" width="235" height="460" as="geometry" />
        </mxCell>
        <mxCell id="faX5LNcDD97SDwnpsko3-56" value="Autorización (Si - No)" style="text;html=1;align=center;verticalAlign=middle;resizable=0;points=[];autosize=1;strokeColor=none;fillColor=none;" vertex="1" parent="faX5LNcDD97SDwnpsko3-38">
          <mxGeometry x="50" y="40" width="130" height="20" as="geometry" />
        </mxCell>
        <mxCell id="faX5LNcDD97SDwnpsko3-74" value="Restricciones" style="swimlane;" vertex="1" parent="faX5LNcDD97SDwnpsko3-38">
          <mxGeometry x="2.5" y="310" width="230" height="145" as="geometry" />
        </mxCell>
        <mxCell id="faX5LNcDD97SDwnpsko3-75" value="Restricción 2: El cliente empresarial&lt;br&gt;solo se le puede asignar cuentas &lt;br&gt;empresariales" style="text;html=1;align=center;verticalAlign=middle;resizable=0;points=[];autosize=1;strokeColor=none;fillColor=none;" vertex="1" parent="faX5LNcDD97SDwnpsko3-74">
          <mxGeometry x="-10" y="95" width="210" height="50" as="geometry" />
        </mxCell>
        <mxCell id="faX5LNcDD97SDwnpsko3-77" value="Restricción 1: El cliente personal &lt;br&gt;solo se le puede asignar 1 &lt;br&gt;cuenta bancaria de cada tipo" style="text;html=1;align=center;verticalAlign=middle;resizable=0;points=[];autosize=1;strokeColor=none;fillColor=none;" vertex="1" parent="faX5LNcDD97SDwnpsko3-74">
          <mxGeometry y="25" width="190" height="50" as="geometry" />
        </mxCell>
        <mxCell id="faX5LNcDD97SDwnpsko3-78" value="comisión por mantenimiento (para cuenta)" style="text;html=1;align=center;verticalAlign=middle;resizable=0;points=[];autosize=1;strokeColor=none;fillColor=none;" vertex="1" parent="faX5LNcDD97SDwnpsko3-38">
          <mxGeometry x="-5" y="70" width="240" height="20" as="geometry" />
        </mxCell>
        <mxCell id="faX5LNcDD97SDwnpsko3-79" value="limite de movimientos (para cuenta)" style="text;html=1;align=center;verticalAlign=middle;resizable=0;points=[];autosize=1;strokeColor=none;fillColor=none;" vertex="1" parent="faX5LNcDD97SDwnpsko3-38">
          <mxGeometry x="10" y="100" width="210" height="20" as="geometry" />
        </mxCell>
        <mxCell id="faX5LNcDD97SDwnpsko3-80" value="créditos permitidos (para crédito)" style="text;html=1;align=center;verticalAlign=middle;resizable=0;points=[];autosize=1;strokeColor=none;fillColor=none;" vertex="1" parent="faX5LNcDD97SDwnpsko3-38">
          <mxGeometry x="20" y="130" width="190" height="20" as="geometry" />
        </mxCell>
        <mxCell id="faX5LNcDD97SDwnpsko3-82" value="Regla" style="swimlane;" vertex="1" parent="faX5LNcDD97SDwnpsko3-38">
          <mxGeometry x="2.5" y="230" width="232.5" height="80" as="geometry" />
        </mxCell>
        <mxCell id="faX5LNcDD97SDwnpsko3-85" value="Definir el atributo Autorización en No solo&lt;br&gt;cuando se relaciona una cuenta corriente&lt;br&gt;&amp;nbsp;con cliente empresarial" style="text;html=1;align=center;verticalAlign=middle;resizable=0;points=[];autosize=1;strokeColor=none;fillColor=none;" vertex="1" parent="faX5LNcDD97SDwnpsko3-82">
          <mxGeometry x="-7.5" y="25" width="240" height="50" as="geometry" />
        </mxCell>
        <mxCell id="faX5LNcDD97SDwnpsko3-55" value="DNI/ RUC" style="text;html=1;align=center;verticalAlign=middle;resizable=0;points=[];autosize=1;strokeColor=none;fillColor=none;" vertex="1" parent="faX5LNcDD97SDwnpsko3-38">
          <mxGeometry x="82.5" y="170" width="70" height="20" as="geometry" />
        </mxCell>
        <mxCell id="faX5LNcDD97SDwnpsko3-88" value="Número de cuenta ( cuenta - crédito)" style="text;html=1;align=center;verticalAlign=middle;resizable=0;points=[];autosize=1;strokeColor=none;fillColor=none;" vertex="1" parent="faX5LNcDD97SDwnpsko3-38">
          <mxGeometry x="10" y="190" width="210" height="20" as="geometry" />
        </mxCell>
        <mxCell id="faX5LNcDD97SDwnpsko3-44" value="Movimientos" style="swimlane;startSize=23;" vertex="1" parent="1">
          <mxGeometry x="600" y="460" width="215" height="290" as="geometry" />
        </mxCell>
        <mxCell id="faX5LNcDD97SDwnpsko3-47" value="Categoría (Bancarios - Créditos)" style="text;html=1;align=center;verticalAlign=middle;resizable=0;points=[];autosize=1;strokeColor=none;fillColor=none;" vertex="1" parent="faX5LNcDD97SDwnpsko3-44">
          <mxGeometry x="5" y="60" width="190" height="20" as="geometry" />
        </mxCell>
        <mxCell id="faX5LNcDD97SDwnpsko3-51" value="Monto" style="text;html=1;align=center;verticalAlign=middle;resizable=0;points=[];autosize=1;strokeColor=none;fillColor=none;" vertex="1" parent="faX5LNcDD97SDwnpsko3-44">
          <mxGeometry x="75" y="100" width="50" height="20" as="geometry" />
        </mxCell>
        <mxCell id="faX5LNcDD97SDwnpsko3-45" value="Nombre (Deposito - Retiros - &lt;br&gt;de crédito - Consumos)" style="text;html=1;align=center;verticalAlign=middle;resizable=0;points=[];autosize=1;strokeColor=none;fillColor=none;" vertex="1" parent="faX5LNcDD97SDwnpsko3-44">
          <mxGeometry x="15" y="30" width="170" height="30" as="geometry" />
        </mxCell>
        <mxCell id="faX5LNcDD97SDwnpsko3-21" value="Consultas" style="swimlane;" vertex="1" parent="faX5LNcDD97SDwnpsko3-44">
          <mxGeometry y="240" width="210" height="50" as="geometry" />
        </mxCell>
        <mxCell id="faX5LNcDD97SDwnpsko3-42" value="Tipos (saldos - movimientos)" style="text;html=1;align=center;verticalAlign=middle;resizable=0;points=[];autosize=1;strokeColor=none;fillColor=none;" vertex="1" parent="faX5LNcDD97SDwnpsko3-21">
          <mxGeometry x="15" y="30" width="170" height="20" as="geometry" />
        </mxCell>
        <mxCell id="faX5LNcDD97SDwnpsko3-86" value="Regla" style="swimlane;" vertex="1" parent="faX5LNcDD97SDwnpsko3-44">
          <mxGeometry y="160" width="215" height="80" as="geometry" />
        </mxCell>
        <mxCell id="faX5LNcDD97SDwnpsko3-43" value="Regla: provee acceso a las consultas" style="text;html=1;align=center;verticalAlign=middle;resizable=0;points=[];autosize=1;strokeColor=none;fillColor=none;" vertex="1" parent="faX5LNcDD97SDwnpsko3-86">
          <mxGeometry x="2.5" y="30" width="210" height="20" as="geometry" />
        </mxCell>
        <mxCell id="faX5LNcDD97SDwnpsko3-93" value="Fecha Hora" style="text;html=1;align=center;verticalAlign=middle;resizable=0;points=[];autosize=1;strokeColor=none;fillColor=none;" vertex="1" parent="faX5LNcDD97SDwnpsko3-44">
          <mxGeometry x="65" y="80" width="80" height="20" as="geometry" />
        </mxCell>
        <mxCell id="faX5LNcDD97SDwnpsko3-57" value="    Productos" style="swimlane;" vertex="1" parent="1">
          <mxGeometry x="54" y="370" width="200" height="170" as="geometry" />
        </mxCell>
        <mxCell id="faX5LNcDD97SDwnpsko3-59" value="tipo (Cuenta - Crédito)" style="text;html=1;align=center;verticalAlign=middle;resizable=0;points=[];autosize=1;strokeColor=none;fillColor=none;" vertex="1" parent="faX5LNcDD97SDwnpsko3-57">
          <mxGeometry x="35" y="50" width="130" height="20" as="geometry" />
        </mxCell>
        <mxCell id="faX5LNcDD97SDwnpsko3-63" value="Nombre" style="text;html=1;align=center;verticalAlign=middle;resizable=0;points=[];autosize=1;strokeColor=none;fillColor=none;" vertex="1" parent="faX5LNcDD97SDwnpsko3-57">
          <mxGeometry x="70" y="30" width="60" height="20" as="geometry" />
        </mxCell>
        <mxCell id="faX5LNcDD97SDwnpsko3-89" value="Numero de tarjeta" style="text;html=1;align=center;verticalAlign=middle;resizable=0;points=[];autosize=1;strokeColor=none;fillColor=none;" vertex="1" parent="1">
          <mxGeometry x="105" y="440" width="110" height="20" as="geometry" />
        </mxCell>
        <mxCell id="faX5LNcDD97SDwnpsko3-90" value="Numero de cuenta" style="text;html=1;align=center;verticalAlign=middle;resizable=0;points=[];autosize=1;strokeColor=none;fillColor=none;" vertex="1" parent="1">
          <mxGeometry x="105" y="460" width="110" height="20" as="geometry" />
        </mxCell>
        <mxCell id="faX5LNcDD97SDwnpsko3-91" value="Fecha de creación" style="text;html=1;align=center;verticalAlign=middle;resizable=0;points=[];autosize=1;strokeColor=none;fillColor=none;" vertex="1" parent="1">
          <mxGeometry x="105" y="480" width="110" height="20" as="geometry" />
        </mxCell>
      </root>
    </mxGraphModel>
  </diagram>
</mxfile>
